# xmcd
#
# Track frame offsets: 
#        150
#        15748
#        34500
#        47486
#        61790
#        80899
#        96415
#        115840
#
# Disc length: 1987 seconds
#
# Revision: 0
# Processed by: cddbd v1.5.2PL0 Copyright (c) Steve Scherf et al.
# Submitted via: ExactAudioCopy v0.99pb4
#
DISCID=5e07c108
DTITLE=David Bowie - Reality - Disc 2
DYEAR=2003
DGENRE=Rock
TTITLE0=Waterloo Sunset
TTITLE1=Fly
TTITLE2=Queen Of All The Tarts (Overture)
TTITLE3=Rebel Rebel
TTITLE4=Love Missle F1 Eleven
TTITLE5=Rebel Never Gets Old (Radio Mix)
TTITLE6=Rebel Never Gets Old (7th Heaven Edit)
TTITLE7=Rebel Never Gets Old (7th Heaven Mix)
EXTD=
EXTT0=
EXTT1=
EXTT2=
EXTT3=
EXTT4=
EXTT5=
EXTT6=
EXTT7=
PLAYORDER=
